# xmcd
#
# Track frame offsets: 
#        150
#        13270
#        27080
#        40480
#        50560
#        64192
#        79270
#        94127
#        106225
#        121735
#        135610
#        146312
#        160237
#        173720
#
# Disc length: 2523 seconds
#
# Revision: 2
# Processed by: cddbd v1.5.2PL0 Copyright (c) Steve Scherf et al.
# Submitted via: ExactAudioCopy v1.0b4
#
DISCID=b709d90e
DTITLE=Vários - O Melhor Das Raízes Sertanejas
DYEAR=1900
DGENRE=Other
TTITLE0=Chitãozinho and Xororó - Fio De Cabelo - Chitãozinho and Xororó
TTITLE1=Trio Parada Dura - Panela Velha - Trio Parada Dura
TTITLE2=João Mineiro and Marciano - Crises De Amor - João Mineiro and Marc
TTITLE2=iano
TTITLE3=Tonico and Tinoco - Cana Verde - Tonico and Tinoco
TTITLE4=Teodoro and Sampaio - Pinga Ne Mim - Teodoro and Sampaio
TTITLE5=Gino and Geno - As Águas Do São Francisco - Gino and Geno
TTITLE6=Suzamar - Galopeira (Galopera) - Suzamar
TTITLE7=Abel and Caim - Rio De Lágrimas - Abel and Caim
TTITLE8=Zico and Zeca - Tristeza Do Jeca - Zico and Zeca
TTITLE9=Gilberto and Gilmar - Capa De Revista - Gilberto and Gilmar
TTITLE10=Tonico and Tinoco - Baile Na Roça - Tonico and Tinoco
TTITLE11=Liu and Léu - Saudade De Minha Terra - Liu and Léu
TTITLE12=Barrerito - O Cantor Das Andorinhas - Barrerito
TTITLE13=Inezita Barroso - Moda Da Pinga (Malvada Pinga) - Inezita Bar
TTITLE13=roso
EXTD=
EXTT0=
EXTT1=
EXTT2=
EXTT3=
EXTT4=
EXTT5=
EXTT6=
EXTT7=
EXTT8=
EXTT9=
EXTT10=
EXTT11=
EXTT12=
EXTT13=
PLAYORDER=
